<?xml version="1.0" encoding="utf-8"?>
<!-- Generator: Adobe Illustrator 25.2.1, SVG Export Plug-In . SVG Version: 6.00 Build 0)  -->
<svg version="1.1" id="レイヤー_1" xmlns="http://www.w3.org/2000/svg" xmlns:xlink="http://www.w3.org/1999/xlink" x="0px"
	 y="0px" viewBox="0 0 267.1 29.8" style="enable-background:new 0 0 267.1 29.8;" xml:space="preserve">
<style type="text/css">
	.st0{fill:url(#SVGID_1_);}
	.st1{fill:url(#SVGID_2_);}
	.st2{fill:url(#SVGID_3_);}
	.st3{fill:url(#SVGID_4_);}
	.st4{fill:url(#SVGID_5_);}
	.st5{fill:#231815;}
	.st6{fill:#E60012;}
</style>
<g id="レイヤー_2_1_">
	<g id="レイヤー_2-2">
		
			<linearGradient id="SVGID_1_" gradientUnits="userSpaceOnUse" x1="-111.9289" y1="-1715.3969" x2="-95.609" y2="-1715.3969" gradientTransform="matrix(0.3949 0 0 -0.3949 60.5157 -657.0012)">
			<stop  offset="0.309" style="stop-color:#E60012"/>
			<stop  offset="1" style="stop-color:#FDD000"/>
		</linearGradient>
		<polygon class="st0" points="16.4,15 23,25.8 16.7,25.8 10.3,15.3 		"/>
		
			<linearGradient id="SVGID_2_" gradientUnits="userSpaceOnUse" x1="-27.6767" y1="-1706.8542" x2="28.3402" y2="-1706.8542" gradientTransform="matrix(0.3949 0 0 -0.3949 61.7511 -657.0012)">
			<stop  offset="0.3652" style="stop-color:#0B318F"/>
			<stop  offset="1" style="stop-color:#00AAE8"/>
		</linearGradient>
		<path class="st1" d="M60.4,12.2h-0.2l0,0.1l-0.7,2.7l-0.1,0.2h0.1l11.5-0.1l-1.1,3.5l-11.3,0.1h-0.1l0,0.1l-0.8,3l0,0.1h11.9
			l-0.9,4H51.7l4.4-17.5l17.2-0.1l-1.2,3.9L60.4,12.2z"/>
		
			<linearGradient id="SVGID_3_" gradientUnits="userSpaceOnUse" x1="-104.279" y1="-1683.0841" x2="-13.839" y2="-1683.0841" gradientTransform="matrix(0.3949 0 0 -0.3949 60.5157 -657.0012)">
			<stop  offset="0.309" style="stop-color:#E60012"/>
			<stop  offset="1" style="stop-color:#FDD000"/>
		</linearGradient>
		<path class="st2" d="M61.7,4.8L61.7,4.8C55.8,1.6,49.2,0,42.5,0C24.3-0.1,14,8.9,10.3,15.3l6.1-0.3C22.2,7.4,34,2.4,46.9,2.3
			c6.9,0,10.6,0.9,14.7,2.6l0,0c0,0,0,0,0,0C61.7,4.9,61.7,4.9,61.7,4.8C61.7,4.8,61.7,4.8,61.7,4.8L61.7,4.8z"/>
		
			<linearGradient id="SVGID_4_" gradientUnits="userSpaceOnUse" x1="-87.8777" y1="-1706.7479" x2="-17.9477" y2="-1706.7479" gradientTransform="matrix(0.3949 0 0 -0.3949 60.5157 -656.8983)">
			<stop  offset="0.3652" style="stop-color:#0B318F"/>
			<stop  offset="1" style="stop-color:#00AAE8"/>
		</linearGradient>
		<path class="st3" d="M31.7,20.9c0,0,0,0.1,0,0.2L31.7,20.9L31,8.6l-5.2,0L27,25.9l7,0l4.3-10.4v10.4l7.1,0l8.4-17.6l-5.7,0.1
			l-5.6,12.3l0,0.1l0-0.1L42.3,8.4l-5.7,0L31.7,20.9z"/>
		
			<linearGradient id="SVGID_5_" gradientUnits="userSpaceOnUse" x1="-138.8201" y1="-1701.9758" x2="-119.5618" y2="-1701.9758" gradientTransform="matrix(0.3949 0 0 -0.3949 60.9225 -657.0012)">
			<stop  offset="0.3652" style="stop-color:#0B318F"/>
			<stop  offset="1" style="stop-color:#00AAE8"/>
		</linearGradient>
		<polygon class="st4" points="6.6,25.9 0,28.6 7.6,5.3 14.9,1.6 		"/>
		<path class="st5" d="M86.2,12.9H88v5.7l5.3-5.7h2.4L89.8,19l6.3,6.9h-2.6L88,19.5v6.4h-1.8L86.2,12.9z"/>
		<path class="st5" d="M98,16.4h1.7v9.5H98V16.4z M99.8,14.3h-1.9v-2h1.9L99.8,14.3z"/>
		<path class="st5" d="M102,16.4h1.6v1.5h0c0.6-1.1,1.7-1.8,3-1.7c2.3,0,3.4,1.5,3.4,4.1v5.6h-1.7V21c0-2.2-0.5-3.3-1.9-3.4
			c-1.9,0-2.7,1.6-2.7,3.9v4.4H102V16.4z"/>
		<path class="st5" d="M117.3,17.8h-2.4V23c0,1.1,0.6,1.7,1.4,1.7c0.4,0,0.8-0.1,1.1-0.3v1.5c-0.5,0.2-0.9,0.2-1.4,0.3
			c-1.4,0.2-2.6-0.8-2.8-2.1c0-0.2,0-0.4,0-0.6v-5.6h-2v-1.4h2v-2.2l1.7-0.6v2.8h2.4L117.3,17.8z"/>
		<path class="st5" d="M120.2,20.2c0.1-1.2,0.8-2.6,2.4-2.6c1.4,0,2.2,1.2,2.2,2.6H120.2z M125.9,23.7c-0.8,0.6-1.8,0.9-2.8,1
			c-1.7,0-3-1.4-3-3.1c0,0,0-0.1,0-0.1h6.4c0-3.1-1-5.4-4-5.4c-2.5,0-4.2,2-4.2,4.8c0,3.1,1.5,5.1,4.7,5.1c1,0,2-0.2,2.8-0.6
			L125.9,23.7z"/>
		<path class="st5" d="M133.3,17.8h-2.4V23c0,1.1,0.6,1.7,1.4,1.7c0.4,0,0.8-0.1,1.1-0.3v1.5c-0.5,0.2-0.9,0.2-1.4,0.3
			c-1.4,0.2-2.6-0.8-2.8-2.1c0-0.2,0-0.4,0-0.6v-5.6h-2v-1.4h2v-2.2l1.7-0.6v2.8h2.4L133.3,17.8z"/>
		<path class="st5" d="M135,24c0.6,0.4,1.3,0.6,2.1,0.7c0.8,0,1.7-0.3,1.7-1.4c0-1.7-3.9-1.6-3.9-4.2c0-2,1.4-2.9,3.2-2.9
			c0.7,0,1.4,0.1,2.1,0.4l-0.1,1.5c-0.5-0.3-1.1-0.4-1.8-0.5c-0.9,0-1.6,0.4-1.6,1.2c0,1.9,3.9,1.4,3.9,4.4c0,1.6-1.2,2.9-2.8,3
			c-0.1,0-0.2,0-0.3,0c-0.9,0-1.7-0.1-2.5-0.5L135,24z"/>
		<path class="st5" d="M150.2,25.9h-1.6v-1.5h0c-0.6,1.1-1.7,1.8-3,1.7c-2.3,0-3.4-1.5-3.4-4.1v-5.6h1.7v4.9c0,2.2,0.5,3.3,1.9,3.4
			c1.9,0,2.7-1.6,2.7-3.9v-4.4h1.7L150.2,25.9z"/>
		<path class="st5" d="M155.9,12.9h1.9l3,11.1h0l2.6-11.1h2.5l2.7,11.1h0l3-11.1h1.9l-3.8,13h-2.3l-2.7-11.4h0L162,25.9h-2.4
			L155.9,12.9z"/>
		<path class="st5" d="M175.4,21.1c0-1.8,1-3.6,2.8-3.6c1.8,0,2.8,1.8,2.8,3.6c0,1.7-0.9,3.6-2.8,3.6
			C176.3,24.7,175.4,22.8,175.4,21.1z M173.7,21.1c-0.2,2.5,1.7,4.8,4.2,5s4.8-1.7,5-4.2c0-0.2,0-0.5,0-0.7c0-2.9-1.8-5-4.6-5
			C175.5,16.2,173.7,18.2,173.7,21.1L173.7,21.1z"/>
		<path class="st5" d="M184.7,16.4h1.6v1.5h0c0.4-1,1.3-1.6,2.4-1.7c0.4,0,0.7,0,1.1,0.1v1.6c-0.3-0.1-0.6-0.2-0.9-0.2
			c-1.5,0-2.5,1.5-2.5,3.9v4.3h-1.7L184.7,16.4z"/>
		<path class="st5" d="M191.8,11.9h1.7v14h-1.7L191.8,11.9z"/>
		<path class="st5" d="M197,21.1c0-1.7,0.7-3.5,2.5-3.5s2.7,1.8,2.7,3.6c0,1.6-0.8,3.5-2.7,3.5C197.7,24.7,197,22.6,197,21.1z
			 M202.2,25.9h1.6v-14h-1.7v5.8h0c-0.6-1-1.8-1.6-3-1.5c-2.6,0-3.9,2.3-3.9,4.8c0,2.6,1.2,5.1,3.9,5.1c1.2,0,2.4-0.5,3.1-1.6h0
			L202.2,25.9z"/>
		<path class="st5" d="M211.1,12.9h6.9v1.6h-5.2v3.8h4.7V20h-4.7v4.3h5.2v1.6h-6.9V12.9z"/>
		<path class="st5" d="M222.4,20.9l-2.9-4.5h2.1l2,3.4l2-3.4h1.9l-2.9,4.5l3.2,5h-2.1l-2.2-3.7l-2.2,3.7h-2L222.4,20.9z"/>
		<path class="st5" d="M235.7,21.1c0,1.5-0.7,3.6-2.5,3.6c-1.9,0-2.7-2-2.7-3.5c0-1.8,0.9-3.6,2.7-3.6S235.7,19.4,235.7,21.1z
			 M228.9,29.8h1.7v-5.2h0c0.6,1,1.8,1.6,3,1.5c2.7,0,3.9-2.5,3.9-5.1c0-2.6-1.3-4.8-3.9-4.8c-1.2,0-2.4,0.6-3.1,1.6h0v-1.3h-1.6
			V29.8z"/>
		<path class="st5" d="M239.3,16.4h1.6v1.5h0c0.4-1,1.3-1.6,2.4-1.7c0.4,0,0.7,0,1.1,0.1v1.6c-0.3-0.1-0.6-0.2-0.9-0.2
			c-1.5,0-2.5,1.5-2.5,3.9v4.3h-1.7L239.3,16.4z"/>
		<path class="st5" d="M247,20.2c0.1-1.2,0.8-2.6,2.4-2.6c1.4,0,2.2,1.2,2.2,2.6H247z M252.8,23.7c-0.8,0.6-1.8,0.9-2.8,1
			c-1.7,0-3-1.4-3-3.1c0,0,0-0.1,0-0.1h6.4c0-3.1-1-5.4-4-5.4c-2.5,0-4.2,2-4.2,4.8c0,3.1,1.5,5.1,4.7,5.1c1,0,2-0.2,2.9-0.6
			L252.8,23.7z"/>
		<path class="st5" d="M254.7,24c0.6,0.4,1.3,0.6,2.1,0.7c0.8,0,1.7-0.3,1.7-1.4c0-1.7-3.9-1.6-3.9-4.2c0-2,1.4-2.9,3.2-2.9
			c0.7,0,1.4,0.1,2.1,0.4l-0.1,1.5c-0.5-0.3-1.1-0.4-1.8-0.5c-0.9,0-1.6,0.4-1.6,1.2c0,1.9,3.9,1.4,3.9,4.4c0,1.6-1.2,2.9-2.8,3
			c-0.1,0-0.2,0-0.3,0c-0.9,0-1.7-0.1-2.5-0.5L254.7,24z"/>
		<path class="st5" d="M261.6,24c0.6,0.4,1.3,0.6,2.1,0.7c0.8,0,1.7-0.3,1.7-1.4c0-1.7-3.9-1.6-3.9-4.2c0-2,1.4-2.9,3.2-2.9
			c0.7,0,1.4,0.1,2.1,0.4l-0.1,1.5c-0.5-0.3-1.1-0.4-1.8-0.5c-0.9,0-1.6,0.4-1.6,1.2c0,1.9,3.9,1.4,3.9,4.4c0,1.6-1.2,2.9-2.8,3
			c-0.1,0-0.2,0-0.3,0c-0.9,0-1.7-0.1-2.5-0.5L261.6,24z"/>
	</g>
</g>
<polygon class="st6" points="16.3,15.8 10.4,15.4 10.4,15.2 16.3,14.6 "/>
</svg>
