<svg class="header__Svg" id="Layer_1" xmlns="http://www.w3.org/2000/svg" viewBox="0 0 576 396" xmlns:dc="http://purl.org/dc/elements/1.1/" xmlns:cc="http://creativecommons.org/ns#" xmlns:rdf="http://www.w3.org/1999/02/22-rdf-syntax-ns#" xmlns:svg="http://www.w3.org/2000/svg" height="90" preserveAspectRatio="xMinYMin meet" version="1.1">
    <defs>
        <style>
        .cls-1 {
            fill: #231f20;
        }

        .cls-1,
        .cls-2,
        .cls-3 {
            stroke-width: 0px;
        }

        .cls-2 {
            fill: #0054a6;
        }

        .cls-3 {
            fill: #a7a6a6;
        }
        </style>
    </defs>
    <path class="cls-1" d="m55.52,241.65h15.7c3.82,0,7.78.55,7.78,7.01s-4.86,6.81-9.03,6.81h-14.45v-13.82Zm-13.48,40.56h13.48v-17.71h20.91c10.9,0,16.46-6.25,16.46-16.81,0-6.67-3.4-15.07-17.5-15.07h-33.34v49.59Z"></path>
    <path class="cls-1" d="m107.4,259.64v-.14c0-.9,2.01-8.27,11.67-8.27,8.96,0,11.53,6.25,11.53,8.27v.14h-23.2Zm22.09,11.46c-1.74,3.2-5.21,4.86-10.14,4.86-8.33,0-11.95-5.42-11.95-8.96v-.14h35.84v-1.11c0-14.03-7.78-22.16-23.89-22.16-14.72,0-24.59,5.97-24.59,20s9.86,20,24.59,20c11.18,0,19.66-3.68,23.2-12.5h-13.06Z"></path>
    <path class="cls-1" d="m147.75,244.98h11.81v7.29h.14c4.44-5.7,7.92-8.26,14.86-8.26,1.39,0,3.06.07,4.45.35v11.46c-2.22-.63-4.45-1.11-6.74-1.11-8.33,0-12.29,4.24-12.29,11.46v16.04h-12.22v-37.23Z"></path>
    <polygon class="cls-1" points="183.8 231.79 196.02 231.79 196.02 258.87 212.2 244.98 229.22 244.98 211.51 259.15 230.33 282.21 214.15 282.21 201.99 266.72 196.02 271.52 196.02 282.21 183.8 282.21 183.8 231.79"></polygon>
    <path class="cls-1" d="m234.29,244.98h12.23v37.23h-12.23v-37.23Zm0-13.2h12.23v8.61h-12.23v-8.61Z"></path>
    <path class="cls-1" d="m284.37,261.1c0-5.14-2.71-7.64-8.19-7.64s-10.49,2.85-10.49,10.76v17.99h-12.23v-37.23h11.81v5.42h.14c2.22-3.13,8.06-6.39,15.21-6.39,6.32,0,15.98,2.43,15.98,13.4v24.79h-12.22v-21.11Z"></path>
    <polygon class="cls-3" points="303.4 232.62 349.72 232.62 349.72 242.06 316.87 242.06 316.87 252.34 348.06 252.34 348.06 261.37 316.87 261.37 316.87 272.77 350 272.77 350 282.21 303.4 282.21 303.4 232.62"></polygon>
    <rect class="cls-3" x="355.49" y="231.79" width="12.22" height="50.42"></rect>
    <path class="cls-3" d="m432.58,259.85c0-5-3.96-6.39-7.5-6.39-5.07,0-9.24,2.78-9.24,8.61v20.14h-12.22v-22.36c0-5-3.96-6.39-7.36-6.39-5.21,0-9.38,2.78-9.38,8.61v20.14h-12.22v-37.23h11.81v5.42h.14c2.22-3.13,8.06-6.39,15.21-6.39s10.97,2.78,12.85,7.01c3.4-4.44,8.54-7.01,15.35-7.01,7.5,0,14.79,3.19,14.79,12.99v25.21h-12.22v-22.36Z"></path>
    <path class="cls-3" d="m461.47,259.64v-.14c0-.9,2.01-8.27,11.67-8.27,8.96,0,11.53,6.25,11.53,8.27v.14h-23.2Zm22.09,11.46c-1.74,3.2-5.21,4.86-10.14,4.86-8.33,0-11.95-5.42-11.95-8.96v-.14h35.84v-1.11c0-14.03-7.78-22.16-23.89-22.16-14.72,0-24.59,5.97-24.59,20s9.86,20,24.59,20c11.18,0,19.66-3.68,23.2-12.5h-13.06Z"></path>
    <path class="cls-3" d="m501.76,244.98h11.81v7.29h.14c4.44-5.7,7.92-8.26,14.86-8.26,1.39,0,3.06.07,4.45.35v11.46c-2.22-.63-4.45-1.11-6.74-1.11-8.33,0-12.29,4.24-12.29,11.46v16.04h-12.22v-37.23Z"></path>
    <path class="cls-2" d="m230.78,68.13v.3c15.01,10.69,24.81,28.76,24.81,48.59s-9.8,37.95-24.81,48.63v.22l83.04-41.43-83.04-56.32Z"></path>
    <polygon class="cls-2" points="178.47 211.14 133.1 211.14 151.24 68.01 196.6 68.01 178.47 211.14"></polygon>
    <path class="cls-1" d="m539.38,231.79c2.87,0,5.09,2.23,5.09,5s-2.23,5.03-5.12,5.03-5.15-2.2-5.15-5.03,2.29-5,5.15-5h.03Zm-.06,1.01c-2.19,0-3.84,1.8-3.84,3.99s1.65,3.99,3.9,3.99c2.2.03,3.81-1.77,3.81-3.99s-1.62-3.99-3.84-3.99h-.03Zm-.76,6.59h-1.16v-4.97c.46-.09,1.1-.18,1.92-.18.95,0,1.37.15,1.74.4.27.21.49.61.49,1.07,0,.58-.43,1.01-1.04,1.19v.06c.49.15.76.55.91,1.22.15.76.24,1.07.37,1.22h-1.25c-.15-.18-.24-.61-.4-1.19-.09-.55-.4-.79-1.04-.79h-.55v1.98Zm.03-2.81h.55c.64,0,1.16-.21,1.16-.73,0-.46-.34-.76-1.07-.76-.3,0-.52.03-.64.06v1.43Z"></path>
    <path class="cls-1" d="m240.31,319.65c-1.44,0-2.66-.15-3.64-.44s-1.98-.72-2.98-1.28l.7-6.08h.62l1.54,4.43c1.2,1.17,2.51,1.76,3.95,1.76,1.63,0,2.9-.48,3.81-1.43.9-.95,1.35-2.18,1.35-3.7,0-.68-.14-1.28-.42-1.79-.28-.51-.76-1.03-1.43-1.54-.67-.51-1.58-1.1-2.73-1.76-1.37-.78-2.37-1.61-3-2.49-.64-.88-.95-1.94-.95-3.19,0-1.39.38-2.64,1.15-3.75.77-1.11,1.78-2,3.02-2.65s2.56-.99,3.95-.99c1.1,0,2.09.14,2.98.42.89.28,1.75.67,2.58,1.15l-.66,5.86h-.59l-1.5-4.28c-.39-.39-.85-.73-1.39-1.02s-1.22-.44-2.05-.44c-1.12,0-2.1.43-2.93,1.28-.83.85-1.25,1.98-1.25,3.37,0,.85.27,1.61.81,2.27s1.48,1.37,2.82,2.12c1.25.71,2.24,1.37,2.98,2,.74.62,1.28,1.28,1.61,1.98.33.7.5,1.51.5,2.43,0,1.51-.41,2.85-1.23,4.01-.82,1.16-1.9,2.07-3.26,2.75-1.35.67-2.81,1.01-4.38,1.01Z"></path>
    <path class="cls-1" d="m257.85,319.65c-1.85,0-3.25-.54-4.17-1.61s-1.39-2.64-1.39-4.69c0-1.29.26-2.59.77-3.88.51-1.29,1.21-2.48,2.11-3.55.89-1.07,1.89-1.93,3-2.58,1.11-.65,2.26-.97,3.46-.97.93,0,1.69.17,2.29.49.6.33,1.07.76,1.41,1.3.15.22.24.4.29.55.05.15.07.31.07.48s-.04.34-.13.51c-.09.17-.23.32-.42.44l-1.24.81h-.26l-.73-1.17c-.39-.61-.77-1.06-1.15-1.35-.38-.29-.92-.44-1.63-.44-.78,0-1.51.38-2.2,1.13-.68.76-1.24,1.73-1.68,2.93-.44,1.2-.66,2.45-.66,3.77,0,1.64.31,2.9.93,3.79.62.89,1.57,1.34,2.84,1.34.63,0,1.35-.2,2.14-.59.79-.39,1.71-1.27,2.76-2.64h.11l.4.37c-1,1.78-2.06,3.16-3.18,4.12-1.12.96-2.37,1.45-3.74,1.45Z"></path>
    <path class="cls-1" d="m270.19,319.65c-.98,0-1.65-.36-2.03-1.08-.38-.72-.45-1.7-.2-2.95l1.83-10.54-2.97-1.24v-.29l6.7-1.17h.11l-2.23,12.49c-.22,1.29-.02,1.94.59,1.94.39,0,.82-.21,1.28-.64.46-.43.92-1.12,1.35-2.07l.55.22c-.71,1.83-1.48,3.18-2.31,4.05-.83.87-1.72,1.3-2.67,1.3Zm2.56-21.6c-.61,0-1.13-.22-1.57-.66-.44-.44-.66-.96-.66-1.57s.22-1.13.66-1.57.96-.66,1.57-.66,1.13.22,1.56.66.64.96.64,1.57-.21,1.14-.64,1.57c-.43.44-.95.66-1.56.66Z"></path>
    <path class="cls-1" d="m282.45,319.65c-1.9,0-3.3-.54-4.19-1.61-.89-1.07-1.34-2.51-1.34-4.32,0-1.42.24-2.8.71-4.16.48-1.35,1.15-2.58,2.01-3.66.87-1.09,1.87-1.95,3.02-2.58,1.15-.63,2.39-.95,3.73-.95,1.25,0,2.18.28,2.8.84.62.56.93,1.23.93,2.01s-.28,1.55-.84,2.23c-.56.68-1.56,1.31-2.98,1.87-1.43.56-3.42,1.07-5.99,1.54-.05.46-.07.93-.07,1.39,0,1.42.32,2.55.97,3.41.65.85,1.62,1.28,2.91,1.28.78,0,1.55-.21,2.31-.62.76-.41,1.55-1.09,2.38-2.01h.07l.4.33c-.81,1.46-1.81,2.67-3.02,3.61-1.21.94-2.48,1.41-3.83,1.41Zm2.89-15.93c-1.2,0-2.23.54-3.09,1.61-.87,1.07-1.46,2.48-1.78,4.21,1.71-.34,3.04-.7,3.99-1.08.95-.38,1.63-.82,2.03-1.32.4-.5.6-1.1.6-1.81,0-.46-.15-.85-.44-1.15-.29-.3-.73-.46-1.32-.46Z"></path>
    <path class="cls-1" d="m292.01,319.28l2.49-14.21-2.71-1.24v-.29l5.64-1.17h.11v3.77h.18c.85-.93,1.59-1.67,2.21-2.22.62-.55,1.24-.95,1.85-1.19.61-.24,1.3-.37,2.09-.37,1.22,0,2.16.49,2.82,1.46.66.98.84,2.29.55,3.95l-1.28,7.07c-.22,1.29-.03,1.94.59,1.94.39,0,.82-.21,1.28-.64.46-.43.92-1.12,1.35-2.07l.55.22c-.71,1.83-1.48,3.18-2.31,4.05-.83.87-1.72,1.3-2.67,1.3s-1.65-.36-2.03-1.08c-.38-.72-.45-1.7-.2-2.95l1.36-7.69c.12-.81.04-1.52-.26-2.14-.29-.62-.94-.93-1.94-.93-.51,0-1.03.16-1.56.48-.53.32-1.03.71-1.52,1.17-.49.46-.92.9-1.28,1.32l-1.98,11.46h-3.33Z"></path>
    <path class="cls-1" d="m316.32,319.65c-1.85,0-3.25-.54-4.17-1.61s-1.39-2.64-1.39-4.69c0-1.29.26-2.59.77-3.88.51-1.29,1.21-2.48,2.11-3.55.89-1.07,1.89-1.93,3-2.58,1.11-.65,2.26-.97,3.46-.97.93,0,1.69.17,2.29.49.6.33,1.07.76,1.41,1.3.15.22.24.4.29.55.05.15.07.31.07.48s-.04.34-.13.51c-.09.17-.23.32-.42.44l-1.24.81h-.26l-.73-1.17c-.39-.61-.77-1.06-1.15-1.35-.38-.29-.92-.44-1.63-.44-.78,0-1.51.38-2.2,1.13-.68.76-1.24,1.73-1.68,2.93-.44,1.2-.66,2.45-.66,3.77,0,1.64.31,2.9.93,3.79.62.89,1.57,1.34,2.84,1.34.63,0,1.35-.2,2.14-.59.79-.39,1.71-1.27,2.76-2.64h.11l.4.37c-1,1.78-2.06,3.16-3.18,4.12-1.12.96-2.37,1.45-3.74,1.45Z"></path>
    <path class="cls-1" d="m331.07,319.65c-1.9,0-3.3-.54-4.19-1.61-.89-1.07-1.34-2.51-1.34-4.32,0-1.42.24-2.8.71-4.16.48-1.35,1.15-2.58,2.01-3.66.87-1.09,1.87-1.95,3.02-2.58,1.15-.63,2.39-.95,3.73-.95,1.25,0,2.18.28,2.8.84.62.56.93,1.23.93,2.01s-.28,1.55-.84,2.23c-.56.68-1.56,1.31-2.98,1.87-1.43.56-3.42,1.07-5.99,1.54-.05.46-.07.93-.07,1.39,0,1.42.32,2.55.97,3.41.65.85,1.62,1.28,2.91,1.28.78,0,1.55-.21,2.31-.62.76-.41,1.55-1.09,2.38-2.01h.07l.4.33c-.81,1.46-1.81,2.67-3.02,3.61-1.21.94-2.48,1.41-3.83,1.41Zm2.89-15.93c-1.2,0-2.23.54-3.09,1.61-.87,1.07-1.46,2.48-1.78,4.21,1.71-.34,3.04-.7,3.99-1.08.95-.38,1.63-.82,2.03-1.32.4-.5.6-1.1.6-1.81,0-.46-.15-.85-.44-1.15-.29-.3-.73-.46-1.32-.46Z"></path>
    <path class="cls-1" d="m353.59,319.28l-2.93-14.35-2.93-1.1v-.29l5.79-1.17h.11l2.23,11.9h.07l5.38-11.53h.77l2.93,12.01h.18l1.9-3.59c.66-1.25,1.1-2.2,1.32-2.86.22-.66.33-1.2.33-1.61,0-.39-.1-.72-.29-.99-.2-.27-.45-.49-.77-.66l-.48-.29v-.18l.66-1.28c.2-.39.37-.64.51-.75s.37-.17.66-.17c.39,0,.76.16,1.1.48.34.32.62.71.82,1.17.21.46.31.9.31,1.32,0,.61-.22,1.32-.66,2.14s-1.09,1.96-1.94,3.42l-4.91,8.38h-.95l-2.82-10.51-5.46,10.51h-.95Z"></path>
    <path class="cls-1" d="m375.27,319.65c-.98,0-1.65-.36-2.03-1.08-.38-.72-.45-1.7-.2-2.95l1.83-10.54-2.97-1.24v-.29l6.7-1.17h.11l-2.23,12.49c-.22,1.29-.02,1.94.59,1.94.39,0,.82-.21,1.28-.64.46-.43.92-1.12,1.35-2.07l.55.22c-.71,1.83-1.48,3.18-2.31,4.05-.83.87-1.72,1.3-2.67,1.3Zm2.56-21.6c-.61,0-1.13-.22-1.57-.66-.44-.44-.66-.96-.66-1.57s.22-1.13.66-1.57.96-.66,1.57-.66,1.13.22,1.56.66.64.96.64,1.57-.21,1.14-.64,1.57c-.43.44-.95.66-1.56.66Z"></path>
    <path class="cls-1" d="m385.3,319.65c-.93,0-1.62-.28-2.09-.84-.46-.56-.7-1.37-.7-2.42,0-.22.01-.46.04-.71s.06-.52.11-.79l1.87-10.54h-2.6v-.29l3.37-1.54,3.19-3.77h.37l-.7,3.99h4.54v1.61h-4.83l-1.61,9.08c-.05.34-.09.63-.11.88-.02.24-.04.46-.04.66,0,.59.1,1,.29,1.24.19.24.48.37.84.37.56,0,1.15-.29,1.78-.88.62-.59,1.19-1.49,1.7-2.71l.55.22c-.78,2.29-1.68,3.94-2.71,4.94-1.03,1-2.11,1.5-3.26,1.5Z"></path>
    <path class="cls-1" d="m395.62,319.28h-3.37l4.32-24.71-2.78-1.28v-.26l6.52-1.17h.11l-2.49,14.24h.11c.83-.93,1.56-1.66,2.2-2.2.63-.54,1.25-.93,1.85-1.17.6-.24,1.29-.37,2.07-.37,1.2,0,2.12.49,2.78,1.46.66.98.84,2.29.55,3.95l-1.24,7.07c-.24,1.29-.06,1.94.55,1.94.42,0,.85-.21,1.32-.64.46-.43.92-1.12,1.35-2.07l.51.22c-.68,1.83-1.45,3.18-2.29,4.05-.84.87-1.74,1.3-2.69,1.3s-1.62-.36-2-1.08c-.38-.72-.46-1.7-.24-2.95l1.35-7.69c.12-.81.03-1.52-.27-2.14-.31-.62-.95-.93-1.92-.93-.49,0-.99.15-1.5.46-.51.31-1.01.68-1.5,1.13-.49.45-.92.9-1.28,1.34l-2.01,11.5Z"></path>
    <path class="cls-1" d="m417.59,319.28l.11-.59,3.08-1.46,3.52-20.06-2.56-1.46.11-.59h8.53c2.81,0,5.02.48,6.65,1.45,1.62.96,2.43,2.46,2.43,4.49,0,1.32-.43,2.54-1.28,3.68-.85,1.13-2.09,2.05-3.7,2.75-1.61.7-3.58,1.04-5.89,1.04h-2.6l-1.54,8.71,3,1.46-.11.59h-9.74Zm10.4-22.3l-1.72,9.74h3.08c2.1,0,3.64-.51,4.63-1.54.99-1.02,1.48-2.33,1.48-3.92,0-1.49-.48-2.58-1.45-3.26-.96-.68-2.33-1.02-4.08-1.02h-1.94Z"></path>
    <path class="cls-1" d="m444.9,319.65c-.93,0-1.69-.35-2.29-1.06-.6-.71-.9-1.68-.9-2.93,0-.22.01-.45.04-.7.02-.24.06-.49.11-.73l1.61-9.15-2.71-1.24v-.29l6.33-1.17h.15l-1.94,11.24c-.1.59-.15,1.01-.15,1.28,0,.63.16,1.17.48,1.61s.82.66,1.5.66c.46,0,.93-.15,1.39-.46.46-.31.92-.68,1.37-1.14s.85-.88,1.19-1.3l1.61-9.19-2.38-1.24v-.29l6.04-1.17h.15l-2.2,12.49c-.24,1.29-.04,1.94.62,1.94.42,0,.85-.21,1.3-.64.45-.43.9-1.12,1.34-2.07l.55.22c-.71,1.83-1.48,3.18-2.31,4.05-.83.87-1.72,1.3-2.67,1.3s-1.65-.35-2.03-1.04c-.38-.7-.47-1.6-.27-2.73h-.07c-.81.9-1.51,1.64-2.12,2.2s-1.2.96-1.76,1.21-1.22.37-1.98.37Z"></path>
    <path class="cls-1" d="m459.18,319.28l2.49-14.21-2.71-1.24v-.29l5.6-1.17h.11v4.32h.18c.78-1.34,1.44-2.32,1.98-2.93.54-.61,1.01-.99,1.43-1.15s.81-.24,1.17-.24c.46,0,.88.15,1.25.44s.55.61.55.95c0,.15-.04.31-.11.48l-1.03,2.09h-.22l-.4-.29c-.42-.32-.9-.48-1.46-.48-.42,0-.79.09-1.13.26-.34.17-.71.51-1.12,1.01-.4.5-.9,1.25-1.48,2.25l-1.76,10.22h-3.33Z"></path>
    <path class="cls-1" d="m468.56,327.7v-.59l2.05-1.06,3.73-20.98-2.71-1.24v-.29l5.64-1.17h.11v4.39h.18c.95-1.39,1.91-2.47,2.87-3.24.96-.77,2.01-1.15,3.13-1.15,1,0,1.82.44,2.45,1.32.63.88.95,2.15.95,3.81,0,1.54-.24,3.03-.73,4.49s-1.16,2.76-2.01,3.92c-.85,1.16-1.84,2.07-2.97,2.75-1.12.67-2.31,1.01-3.55,1.01-.85,0-1.68-.15-2.49-.44l-1.13,6.81,3,1.1v.59h-8.53Zm13-22.63c-.83,0-1.64.38-2.42,1.14-.78.76-1.48,1.59-2.09,2.49l-1.32,7.65c.39.59.8,1.04,1.23,1.35.43.32.96.48,1.59.48,1,0,1.88-.44,2.64-1.32.76-.88,1.35-2.03,1.78-3.44s.64-2.93.64-4.54c0-1.27-.15-2.22-.44-2.86s-.83-.95-1.61-.95Z"></path>
    <path class="cls-1" d="m495.58,319.65c-2.17,0-3.78-.67-4.81-2.01-1.04-1.34-1.56-3.06-1.56-5.16,0-1.17.21-2.35.64-3.53.43-1.18,1.03-2.28,1.81-3.28.78-1,1.71-1.8,2.78-2.4,1.07-.6,2.26-.9,3.55-.9,2.22,0,3.86.68,4.91,2.03,1.05,1.35,1.57,3.08,1.57,5.18,0,1.12-.21,2.28-.62,3.46-.42,1.18-1.01,2.28-1.79,3.28-.78,1-1.71,1.81-2.8,2.42s-2.31.92-3.68.92Zm.4-1.5c.98,0,1.82-.41,2.54-1.24.72-.83,1.28-1.93,1.68-3.3.4-1.37.6-2.86.6-4.47,0-1.73-.22-3.05-.66-3.95-.44-.9-1.25-1.35-2.42-1.35-.95,0-1.79.38-2.53,1.13-.73.76-1.31,1.81-1.72,3.15-.42,1.34-.62,2.89-.62,4.65s.22,3.03.66,3.97c.44.94,1.26,1.41,2.45,1.41Z"></path>
    <path class="cls-1" d="m510.4,319.65c-1.17,0-2.13-.17-2.87-.49-.75-.33-1.3-.74-1.67-1.23-.32-.39-.48-.76-.48-1.1,0-.15.02-.3.07-.46s.17-.29.37-.38l.95-.59h.26l.62.99c.39.61.88,1.07,1.46,1.37.59.31,1.18.46,1.79.46.88,0,1.59-.23,2.14-.68.55-.45.82-1.09.82-1.92,0-.9-.29-1.59-.86-2.07-.57-.48-1.33-.99-2.25-1.56-.85-.54-1.53-1.02-2.01-1.46-.49-.44-.82-.91-1.01-1.41-.18-.5-.27-1.12-.27-1.85s.29-1.48.88-2.23c.59-.76,1.34-1.39,2.27-1.9.93-.51,1.92-.77,2.97-.77s1.79.16,2.38.48c.59.32,1.04.71,1.35,1.17.27.42.4.76.4,1.02,0,.17-.03.33-.09.48-.06.15-.18.27-.35.37l-.92.59h-.26l-.84-1.14c-.34-.46-.71-.82-1.1-1.08-.39-.26-.89-.38-1.5-.38-.68,0-1.25.2-1.7.59-.45.39-.68.92-.68,1.57s.23,1.28.68,1.79c.45.51,1.04.96,1.78,1.35,1.25.71,2.2,1.41,2.86,2.11s.99,1.7.99,3.02c0,.93-.27,1.79-.81,2.6s-1.27,1.46-2.2,1.98c-.93.51-1.99.77-3.19.77Z"></path>
    <path class="cls-1" d="m524.65,319.65c-1.9,0-3.3-.54-4.19-1.61-.89-1.07-1.34-2.51-1.34-4.32,0-1.42.24-2.8.71-4.16.48-1.35,1.15-2.58,2.01-3.66.87-1.09,1.87-1.95,3.02-2.58,1.15-.63,2.39-.95,3.73-.95,1.25,0,2.18.28,2.8.84.62.56.93,1.23.93,2.01s-.28,1.55-.84,2.23c-.56.68-1.56,1.31-2.98,1.87-1.43.56-3.42,1.07-5.99,1.54-.05.46-.07.93-.07,1.39,0,1.42.32,2.55.97,3.41.65.85,1.62,1.28,2.91,1.28.78,0,1.55-.21,2.31-.62.76-.41,1.55-1.09,2.38-2.01h.07l.4.33c-.81,1.46-1.81,2.67-3.02,3.61-1.21.94-2.48,1.41-3.83,1.41Zm2.89-15.93c-1.2,0-2.23.54-3.09,1.61-.87,1.07-1.46,2.48-1.78,4.21,1.71-.34,3.04-.7,3.99-1.08.95-.38,1.63-.82,2.03-1.32.4-.5.6-1.1.6-1.81,0-.46-.15-.85-.44-1.15-.29-.3-.73-.46-1.32-.46Z"></path>
</svg>